<svg id="Layer_1" data-name="Layer 1" xmlns="http://www.w3.org/2000/svg" viewBox="0 0 545.17 132.91"><defs><style>.cls-1,.cls-3{fill:#fff;}.cls-2{fill:#00944f;}.cls-3{stroke:#00944f;stroke-miterlimit:10;stroke-width:5px;}</style></defs><circle class="cls-1" cx="64.37" cy="63" r="60.5"/><path class="cls-2" d="M84,42a58,58,0,1,1-58,58A58.07,58.07,0,0,1,84,42m0-5a63,63,0,1,0,63,63A63,63,0,0,0,84,37Z" transform="translate(-19.63 -37)"/><circle class="cls-1" cx="64.37" cy="63" r="1.5"/><path class="cls-2" d="M84,96a4,4,0,1,0,4,4,4,4,0,0,0-4-4Z" transform="translate(-19.63 -37)"/><path class="cls-3" d="M51.77,152.37,38.48,140.69a33.11,33.11,0,0,1-1.51,4.8c-5,12.54-15.88,17.31-14.76,20s11.14,2.76,19-1.21A27.91,27.91,0,0,0,52.67,153,5.9,5.9,0,0,1,51.77,152.37Z" transform="translate(-19.63 -37)"/><circle class="cls-1" cx="39.37" cy="63" r="1.5"/><path class="cls-2" d="M59,96a4,4,0,1,0,4,4,4,4,0,0,0-4-4Z" transform="translate(-19.63 -37)"/><circle class="cls-1" cx="88.37" cy="63" r="1.5"/><path class="cls-2" d="M108,96a4,4,0,1,0,4,4,4,4,0,0,0-4-4Z" transform="translate(-19.63 -37)"/><rect class="cls-1" x="47.5" y="145.5" width="4" height="9" transform="translate(78.5 -37.28) rotate(36.2)"/><rect class="cls-1" x="40.7" y="135" width="4" height="16" transform="translate(36.46 -42.64) rotate(21.77)"/><rect class="cls-1" x="42.89" y="143.37" width="6.39" height="8.63" transform="translate(38.44 -43.56) rotate(21.77)"/><path d="M169.87,134.2V63H185q8.79,0,13.35,4.8t4.55,13.6v33.3q0,10-4.85,14.75t-14,4.75Zm10.2-61.6v52h4.7c2.86,0,4.9-.72,6.1-2.15s1.8-3.68,1.8-6.75V81.4a10.79,10.79,0,0,0-1.7-6.5c-1.14-1.53-3.2-2.3-6.2-2.3Z" transform="translate(-19.63 -37)"/><path d="M235.49,134.2V63h30.4v9.6h-20.2V93.5h17.6v9.6h-17.6V124h20.2v10.2Z" transform="translate(-19.63 -37)"/><path d="M328.51,83.5h-10.2V81.2a10.9,10.9,0,0,0-1.65-6Q315,72.6,311.11,72.6a6.46,6.46,0,0,0-3.4.8,6.81,6.81,0,0,0-2.1,2,8.55,8.55,0,0,0-1.1,2.95,19.26,19.26,0,0,0-.3,3.45,33.77,33.77,0,0,0,.15,3.5,6.64,6.64,0,0,0,.75,2.5,5.63,5.63,0,0,0,1.75,1.9A16.27,16.27,0,0,0,310,91.3l7.8,3.1a19.29,19.29,0,0,1,5.5,3,13.26,13.26,0,0,1,3.3,4,18.54,18.54,0,0,1,1.5,5.45,53.3,53.3,0,0,1,.4,7,36.67,36.67,0,0,1-.9,8.35,17.46,17.46,0,0,1-2.9,6.55,14.37,14.37,0,0,1-5.5,4.4,19.47,19.47,0,0,1-8.3,1.6,18.14,18.14,0,0,1-6.9-1.3,16.61,16.61,0,0,1-5.5-3.6,17.58,17.58,0,0,1-3.65-5.35,16.23,16.23,0,0,1-1.35-6.65v-3.8h10.2v3.2a8.32,8.32,0,0,0,1.65,5q1.65,2.25,5.55,2.25a8.91,8.91,0,0,0,4-.75,5.37,5.37,0,0,0,2.25-2.15,7.79,7.79,0,0,0,1-3.35q.15-1.95.15-4.35a41.37,41.37,0,0,0-.2-4.6,7.83,7.83,0,0,0-.8-2.9,5.59,5.59,0,0,0-1.85-1.8,22.27,22.27,0,0,0-3-1.5l-7.3-3q-6.6-2.7-8.85-7.15A24.6,24.6,0,0,1,294,81.9a26,26,0,0,1,1.1-7.6,17.47,17.47,0,0,1,3.3-6.2A15.18,15.18,0,0,1,303.76,64a17.92,17.92,0,0,1,7.75-1.55,17,17,0,0,1,6.95,1.4,17.86,17.86,0,0,1,5.45,3.7,15.44,15.44,0,0,1,4.6,11Z" transform="translate(-19.63 -37)"/><path d="M359.43,134.2V63h10.2v71.2Z" transform="translate(-19.63 -37)"/><path d="M402.56,134.2V63h15.1q8.79,0,13.35,4.8t4.55,13.6v33.3q0,10-4.85,14.75t-13.95,4.75Zm10.2-61.6v52h4.7c2.86,0,4.9-.72,6.1-2.15s1.8-3.68,1.8-6.75V81.4a10.79,10.79,0,0,0-1.7-6.5c-1.14-1.53-3.2-2.3-6.2-2.3Z" transform="translate(-19.63 -37)"/><path d="M468.18,134.2V63h30.4v9.6h-20.2V93.5H496v9.6h-17.6V124h20.2v10.2Z" transform="translate(-19.63 -37)"/><path d="M528.2,134.2V63h16.4q18,0,18,20.9a26.33,26.33,0,0,1-2,10.7,15.12,15.12,0,0,1-6.85,7.1l11,32.5H554l-9.5-30.4h-6.1v30.4Zm10.2-61.6V94.8h5.8a10.27,10.27,0,0,0,4.3-.75A5.85,5.85,0,0,0,551,91.9a9.8,9.8,0,0,0,1.1-3.45,37.75,37.75,0,0,0,0-9.5,9.49,9.49,0,0,0-1.2-3.55q-1.9-2.81-7.2-2.8Z" transform="translate(-19.63 -37)"/></svg>